<svg width="2022" height="444" viewBox="0 0 2022 444" fill="none" xmlns="http://www.w3.org/2000/svg" xmlns:xlink="http://www.w3.org/1999/xlink">
<line x1="1619.735" y1="442.214" x2="1619.735" y2="-0.956" stroke="#B1B1B1" stroke-width="0.5" stroke-miterlimit="3.999327"/>
<path d="M0.323,68.666L0.323,437.499L2019.923,437.499L2019.923,138.676C1976.109,115.34 1877.717,65.596 1834.697,53.312C1780.921,37.958 1762.995,77.551 1673.367,138.676C1601.665,187.576 1520.005,159.051 1488.137,138.676L1332.783,102.317C1300.915,121.674 1227.621,151.724 1189.379,117.072C1151.139,82.42 1057.927,70.363 1016.099,68.666C965.043,83.221 845.825,117.599 777.417,138.676C691.907,165.023 664.479,136.042 590.261,102.317C516.045,68.593 435.375,109.168 385.359,117.072C335.343,124.976 285.329,86.509 274.035,77.551C262.741,68.593 196.591,80.186 162.71,77.551C135.604,75.444 125.639,48.697 87.626,50.077L0.323,68.666Z" fill="url(#pf_0_38_208)"/>
<path d="M87.626,50.077L87.59,49.077L87.503,49.081L87.418,49.099L87.626,50.077ZM162.71,77.551L162.632,78.548L162.71,77.551ZM777.417,138.676L777.711,139.632L777.711,139.632L777.417,138.676ZM1016.099,68.666L1016.141,67.667L1015.981,67.661L1015.825,67.705L1016.099,68.666ZM1332.783,102.317L1333.011,101.344L1332.613,101.251L1332.265,101.463L1332.783,102.317ZM1488.137,138.676L1488.677,137.834L1488.533,137.742L1488.365,137.703L1488.137,138.676ZM1834.697,53.312L1834.423,54.274L1834.697,53.312ZM0.532,69.645L87.834,51.055L87.418,49.099L0.115,67.688L0.532,69.645ZM87.662,51.076C106.379,50.397 118.168,56.622 128.721,63.35C139.251,70.063 148.769,77.47 162.632,78.548L162.787,76.554C149.545,75.525 140.528,68.505 129.796,61.663C119.087,54.836 106.887,48.377 87.59,49.077L87.662,51.076ZM162.632,78.548C179.666,79.873 204.783,77.623 226.907,76.178C238.001,75.453 248.345,74.93 256.615,75.142C260.749,75.249 264.333,75.539 267.217,76.071C270.129,76.608 272.199,77.371 273.413,78.335L274.655,76.768C273.047,75.492 270.579,74.658 267.579,74.104C264.551,73.545 260.849,73.251 256.665,73.143C248.295,72.928 237.869,73.458 226.777,74.182C204.531,75.635 179.635,77.864 162.787,76.554L162.632,78.548ZM273.413,78.335C279.081,82.83 294.475,94.739 314.741,104.535C334.993,114.324 360.219,122.057 385.515,118.06L385.203,116.084C360.483,119.991 335.695,112.442 315.611,102.735C295.543,93.034 280.283,81.231 274.655,76.768L273.413,78.335ZM385.515,118.06C398.089,116.073 412.569,112.036 428.307,107.653C444.067,103.263 461.123,98.515 478.925,95.066C514.531,88.167 553.013,86.49 589.847,103.228L590.675,101.407C553.295,84.421 514.331,86.169 478.545,93.102C460.651,96.569 443.521,101.339 427.771,105.726C411.997,110.119 397.639,114.119 385.203,116.084L385.515,118.06ZM589.847,103.228C608.385,111.651 623.979,119.768 638.349,126.828C652.701,133.88 665.821,139.872 679.313,143.98C706.361,152.217 734.803,152.852 777.711,139.632L777.123,137.721C734.519,150.847 706.493,150.166 679.895,142.067C666.565,138.008 653.567,132.077 639.231,125.033C624.911,117.998 609.247,109.846 590.675,101.407L589.847,103.228ZM777.711,139.632C846.109,118.558 965.317,84.182 1016.375,69.628L1015.825,67.705C964.769,82.259 845.541,116.64 777.123,137.721L777.711,139.632ZM1016.059,69.666C1036.921,70.512 1070.619,73.944 1103.863,81.486C1137.151,89.039 1169.793,100.673 1188.709,117.813L1190.051,116.331C1170.725,98.819 1137.639,87.099 1104.305,79.536C1070.925,71.963 1037.105,68.518 1016.141,67.667L1016.059,69.666ZM1188.709,117.813C1208.189,135.466 1236.487,136.548 1263.673,130.927C1290.899,125.298 1317.297,112.894 1333.303,103.172L1332.265,101.463C1316.401,111.097 1290.219,123.396 1263.269,128.968C1236.281,134.548 1208.811,133.329 1190.051,116.331L1188.709,117.813ZM1332.555,103.291L1487.909,139.65L1488.365,137.703L1333.011,101.344L1332.555,103.291ZM1487.599,139.519C1519.625,159.996 1601.753,188.727 1673.931,139.502L1672.805,137.85C1601.579,186.425 1520.385,158.107 1488.677,137.834L1487.599,139.519ZM1673.931,139.502C1696.367,124.201 1714.315,110.248 1729.449,98.174C1744.597,86.087 1756.879,75.92 1768.049,68.135C1779.207,60.357 1789.169,55.017 1799.635,52.55C1810.083,50.089 1821.111,50.473 1834.423,54.274L1834.971,52.351C1821.395,48.474 1810.015,48.05 1799.177,50.604C1788.357,53.153 1778.153,58.653 1766.905,66.494C1755.667,74.328 1743.301,84.562 1728.201,96.61C1713.085,108.671 1695.181,122.589 1672.805,137.85L1673.931,139.502ZM1834.423,54.274C1855.841,60.389 1891.123,75.86 1926.583,92.752C1962.019,109.633 1997.559,127.896 2019.463,139.559L2020.403,137.794C1998.477,126.12 1962.911,107.843 1927.443,90.946C1891.999,74.062 1856.573,58.519 1834.971,52.351L1834.423,54.274Z" fill="#FF3D00"/>
<defs>
<linearGradient id="pf_0_38_208" x1="1010.125" y1="49.997" x2="1010.125" y2="437.498" gradientUnits="userSpaceOnUse">
<stop stop-color="#F9D1AD"/>
<stop offset="1" stop-color="#F8D7B1" stop-opacity="0"/>
</linearGradient>
</defs>
</svg>
