<svg width="578" height="336" viewBox="0 0 578 336" fill="none" xmlns="http://www.w3.org/2000/svg" xmlns:xlink="http://www.w3.org/1999/xlink">
<line x1="461.784" y1="335.012" x2="461.784" y2="-0.445" stroke="#B1B1B1" stroke-width="0.5" stroke-miterlimit="3.999327"/>
<path d="M0.861,52.256L0.861,331.442L576.135,331.442L576.135,105.25C563.653,87.585 535.627,49.931 523.373,40.633C508.055,29.011 502.949,58.981 477.419,105.25C456.995,142.265 433.735,120.673 424.657,105.25L380.405,77.728C371.329,92.38 350.451,115.126 339.557,88.896C328.665,62.667 302.115,53.54 290.201,52.256C275.657,63.273 241.699,89.295 222.213,105.25C197.855,125.193 190.042,103.255 168.902,77.728C147.761,52.201 124.783,82.913 110.536,88.896C96.29,94.879 82.043,65.762 78.826,58.981C75.609,52.201 56.767,60.976 47.116,58.981C39.395,57.386 36.556,37.14 25.728,38.184L0.861,52.256Z" fill="url(#pf_0_11_136)"/>
<path d="M25.728,38.184L25.632,37.189L25.421,37.209L25.236,37.314L25.728,38.184ZM47.116,58.981L46.913,59.961L47.116,58.981ZM222.213,105.25L222.845,106.024L222.845,106.024L222.213,105.25ZM290.201,52.256L290.307,51.262L289.913,51.219L289.597,51.459L290.201,52.256ZM380.405,77.728L380.933,76.879L380.083,76.35L379.555,77.201L380.405,77.728ZM424.657,105.25L425.519,104.743L425.395,104.531L425.185,104.401L424.657,105.25ZM523.373,40.633L522.769,41.43L522.769,41.43L523.373,40.633ZM1.353,53.126L26.221,39.055L25.236,37.314L0.368,51.386L1.353,53.126ZM25.824,39.18C28.168,38.954 30.105,39.859 31.871,41.501C33.665,43.17 35.214,45.54 36.726,48.101C38.207,50.611 39.672,53.341 41.229,55.497C42.775,57.639 44.592,59.481 46.913,59.961L47.318,58.002C45.779,57.684 44.345,56.397 42.85,54.326C41.365,52.27 39.995,49.705 38.448,47.085C36.932,44.516 35.259,41.921 33.234,40.037C31.181,38.127 28.703,36.893 25.632,37.189L25.824,39.18ZM46.913,59.961C49.502,60.496 52.631,60.299 55.826,59.86C59.02,59.421 62.443,58.712 65.555,58.172C68.717,57.623 71.567,57.246 73.803,57.399C76.057,57.553 77.356,58.215 77.922,59.41L79.729,58.553C78.688,56.357 76.425,55.573 73.939,55.403C71.436,55.232 68.369,55.653 65.212,56.201C62.005,56.758 58.707,57.445 55.553,57.878C52.401,58.312 49.555,58.464 47.318,58.002L46.913,59.961ZM77.922,59.41C79.534,62.806 83.939,71.867 89.756,79.34C92.661,83.071 95.97,86.475 99.517,88.562C103.086,90.662 106.985,91.472 110.924,89.818L110.149,87.974C106.964,89.312 103.74,88.726 100.531,86.838C97.299,84.936 94.173,81.758 91.334,78.111C85.662,70.825 81.335,61.937 79.729,58.553L77.922,59.41ZM110.924,89.818C114.622,88.265 118.839,85.135 123.288,81.841C127.789,78.51 132.592,74.959 137.592,72.385C142.589,69.812 147.68,68.271 152.752,68.856C157.793,69.437 162.974,72.137 168.132,78.366L169.672,77.09C164.26,70.555 158.641,67.522 152.982,66.869C147.355,66.22 141.847,67.944 136.676,70.607C131.508,73.268 126.574,76.921 122.098,80.234C117.572,83.584 113.574,86.536 110.149,87.974L110.924,89.818ZM168.132,78.366C173.401,84.728 177.824,90.848 181.931,96.21C186.015,101.542 189.798,106.143 193.721,109.318C197.67,112.513 201.837,114.325 206.657,113.95C211.437,113.578 216.685,111.069 222.845,106.024L221.579,104.476C215.563,109.403 210.699,111.63 206.503,111.956C202.347,112.279 198.671,110.75 194.98,107.763C191.262,104.755 187.607,100.332 183.519,94.994C179.454,89.687 174.973,83.491 169.672,77.09L168.132,78.366ZM222.845,106.024C242.315,90.082 276.261,64.07 290.803,53.053L289.597,51.459C275.053,62.476 241.081,88.508 221.579,104.476L222.845,106.024ZM290.093,53.25C301.809,54.513 327.935,63.518 338.635,89.28L340.481,88.513C329.395,61.815 302.419,52.567 290.307,51.262L290.093,53.25ZM338.635,89.28C341.411,95.967 344.915,99.754 348.917,101.216C352.923,102.681 357.151,101.713 361.145,99.519C369.091,95.152 376.693,85.621 381.255,78.255L379.555,77.201C375.043,84.487 367.665,93.654 360.181,97.766C356.459,99.812 352.857,100.528 349.603,99.338C346.341,98.146 343.151,94.94 340.481,88.513L338.635,89.28ZM379.877,78.577L424.129,106.099L425.185,104.401L380.933,76.879L379.877,78.577ZM423.795,105.757C428.377,113.542 436.633,123.071 446.511,125.876C451.503,127.294 456.887,126.985 462.329,123.904C467.741,120.842 473.137,115.081 478.295,105.733L476.545,104.767C471.491,113.926 466.321,119.347 461.343,122.164C456.397,124.964 451.567,125.233 447.057,123.952C437.929,121.359 430.015,112.38 425.519,104.743L423.795,105.757ZM478.295,105.733C484.693,94.138 489.809,83.568 494.121,74.426C498.441,65.268 501.931,57.588 505.105,51.708C508.303,45.785 511.069,41.91 513.851,40.168C515.201,39.323 516.529,38.997 517.927,39.168C519.349,39.342 520.939,40.042 522.769,41.43L523.977,39.837C521.977,38.319 520.059,37.414 518.169,37.183C516.257,36.949 514.473,37.419 512.791,38.473C509.509,40.527 506.531,44.857 503.347,50.758C500.137,56.701 496.609,64.462 492.311,73.573C488.007,82.7 482.911,93.227 476.545,104.767L478.295,105.733ZM522.769,41.43C525.749,43.691 529.743,47.725 534.285,52.833C538.813,57.926 543.841,64.04 548.885,70.424C558.969,83.191 569.085,97.006 575.319,105.827L576.951,104.673C570.703,95.829 560.565,81.985 550.453,69.184C545.399,62.784 540.343,56.637 535.779,51.504C531.229,46.385 527.125,42.225 523.977,39.837L522.769,41.43Z" fill="#FF3D00"/>
<defs>
<linearGradient id="pf_0_11_136" x1="288.498" y1="38.124" x2="288.498" y2="331.442" gradientUnits="userSpaceOnUse">
<stop stop-color="#F9D1AD"/>
<stop offset="1" stop-color="#F8D7B1" stop-opacity="0"/>
</linearGradient>
</defs>
</svg>
