<svg width="126" height="126" viewBox="0 0 126 126" fill="none" xmlns="http://www.w3.org/2000/svg" xmlns:xlink="http://www.w3.org/1999/xlink">
<path d="M82.031,21C82.031,23.785 80.925,26.456 78.956,28.425C76.987,30.394 74.316,31.5 71.531,31.5C68.746,31.5 66.076,30.394 64.107,28.425C62.137,26.456 61.031,23.785 61.031,21C61.031,18.215 62.137,15.545 64.107,13.575C66.076,11.606 68.746,10.5 71.531,10.5C74.316,10.5 76.987,11.606 78.956,13.575C80.925,15.545 82.031,18.215 82.031,21ZM67.444,74.542L81.076,87.993C81.598,88.508 82.007,89.128 82.275,89.812L89.544,108.331C90.053,109.627 90.026,111.073 89.469,112.349C88.912,113.626 87.871,114.629 86.575,115.138C85.279,115.647 83.833,115.62 82.557,115.063C81.28,114.506 80.277,113.465 79.768,112.169L72.907,94.684L49.471,71.557C48.904,70.999 48.472,70.319 48.207,69.569C47.942,68.819 47.851,68.019 47.94,67.229L49.817,50.639C45.292,55.138 41.8,61.462 39.126,69.843C38.926,70.512 38.594,71.133 38.152,71.672C37.709,72.211 37.163,72.656 36.546,72.981C35.929,73.307 35.254,73.506 34.559,73.567C33.864,73.629 33.164,73.551 32.5,73.339C31.835,73.127 31.22,72.785 30.689,72.332C30.159,71.88 29.723,71.326 29.409,70.703C29.095,70.081 28.908,69.402 28.859,68.706C28.81,68.01 28.9,67.312 29.124,66.651C34.033,51.269 42.184,39.756 55.86,34.477L55.92,34.453C59.404,33.159 63.026,33.264 66.255,34.931C69.355,36.535 71.563,39.304 73.009,42.407L74.71,46.082C75.991,48.859 77.067,51.201 78.104,53.253C79.556,56.141 80.724,58.057 81.879,59.401C82.95,60.645 84.013,61.412 85.37,61.942C86.83,62.512 88.875,62.905 92.032,63C92.726,63.014 93.41,63.165 94.045,63.445C94.68,63.725 95.253,64.128 95.731,64.631C96.21,65.133 96.583,65.726 96.831,66.374C97.079,67.022 97.196,67.713 97.175,68.406C97.154,69.1 96.996,69.783 96.71,70.415C96.424,71.047 96.015,71.616 95.507,72.089C95,72.562 94.404,72.93 93.753,73.171C93.103,73.413 92.411,73.522 91.717,73.495C87.924,73.382 84.556,72.896 81.551,71.723C78.445,70.51 75.996,68.665 73.912,66.237C72.6,64.709 71.445,62.963 70.368,61.065L67.444,74.542Z" fill="#FFFFFF" stroke="#876A6F" stroke-width="3" stroke-miterlimit="3.999327"/>
<path d="M47.94,79.327L56.642,87.675L52.636,101.186C52.327,102.231 51.699,103.154 50.841,103.827L37.364,114.387C36.821,114.812 36.2,115.126 35.536,115.311C34.871,115.496 34.177,115.549 33.492,115.466C32.808,115.382 32.146,115.165 31.546,114.826C30.945,114.487 30.417,114.033 29.992,113.49C29.567,112.948 29.253,112.326 29.068,111.662C28.882,110.998 28.83,110.303 28.913,109.619C28.997,108.934 29.214,108.273 29.553,107.672C29.892,107.071 30.345,106.543 30.888,106.118L43.047,96.595L46.709,84.231L47.94,79.327Z" fill="#FFFFFF" stroke="#876A6F" stroke-width="3" stroke-miterlimit="3.999327"/>
</svg>
