<svg width="84" height="90" viewBox="0 0 84 90" fill="none" xmlns="http://www.w3.org/2000/svg" xmlns:xlink="http://www.w3.org/1999/xlink">
<path d="M27.963,40.583L28.599,40.614C30.129,40.761 31.561,41.435 32.648,42.521C33.736,43.607 34.412,45.038 34.561,46.568L34.583,47.208L34.552,47.849C34.404,49.378 33.728,50.808 32.641,51.894C31.554,52.98 30.124,53.655 28.594,53.802L27.963,53.833L12.504,53.833L12.504,62.667L27.963,62.667C35.471,62.667 41.73,57.314 43.13,50.216L43.262,49.421L69.921,49.417C73.061,49.417 76.051,48.759 78.754,47.579L78.754,67.083C78.755,69.824 77.906,72.497 76.324,74.735C74.742,76.973 72.505,78.665 69.921,79.578L69.921,84.75C69.921,85.921 69.456,87.045 68.627,87.873C67.799,88.701 66.676,89.167 65.504,89.167L12.504,89.167C11.333,89.167 10.21,88.701 9.381,87.873C8.553,87.045 8.088,85.921 8.088,84.75L8.088,79.583C5.503,78.669 3.266,76.976 1.684,74.737C0.102,72.499 -0.747,69.825 -0.746,67.083L-0.746,49.417C-0.746,47.074 0.185,44.827 1.842,43.171C3.498,41.514 5.745,40.583 8.088,40.583L27.963,40.583ZM83.171,25.125L83.171,27.333L83.149,28.111C82.959,31.351 81.586,34.408 79.291,36.703C76.996,38.998 73.938,40.371 70.698,40.561L69.921,40.583L41.933,40.583C40.746,38.081 38.909,35.944 36.614,34.395C34.319,32.846 31.65,31.941 28.886,31.777L27.958,31.75L8.083,31.75C4.981,31.749 1.933,32.566 -0.754,34.117L-0.746,18.5C-0.746,13.814 1.116,9.321 4.429,6.008C7.742,2.695 12.236,0.833 16.921,0.833L58.879,0.833C65.322,0.833 71.501,3.393 76.056,7.948C80.612,12.504 83.171,18.682 83.171,25.125Z" fill="#FFFFFF" stroke="#876A6F" stroke-width="3" stroke-miterlimit="3.999327"/>
</svg>
