<svg width="100" height="102" viewBox="0 0 100 102" fill="none" xmlns="http://www.w3.org/2000/svg" xmlns:xlink="http://www.w3.org/1999/xlink">
<path d="M95.759,14.398C94.009,12.625 91.835,11.337 89.448,10.658C88.618,7.666 86.863,5.019 84.439,3.104C82.015,1.188 79.049,0.103 75.972,0.007L75.958,0.007C72.64,-0.097 69.387,0.952 66.744,2.98C64.228,2.205 61.551,2.136 58.998,2.779C56.446,3.423 54.115,4.755 52.255,6.633C50.91,7.989 49.844,9.6 49.116,11.373C48.388,13.146 48.013,15.046 48.013,16.965C48.013,18.885 48.388,20.785 49.116,22.558C49.844,24.331 50.91,25.941 52.255,27.298L72.954,48.183C75.669,50.922 79.35,52.46 83.188,52.46C87.026,52.46 90.707,50.922 93.422,48.183C95.282,46.306 96.602,43.953 97.239,41.377C97.877,38.801 97.808,36.098 97.04,33.558C99.052,30.892 100.095,27.609 99.993,24.259C99.876,20.548 98.362,17.022 95.759,14.398ZM78.295,43.252C78.216,43.178 78.139,43.103 78.064,43.026L57.365,22.134L57.155,21.914C58.419,20.279 60.006,18.925 61.815,17.94C63.623,16.954 65.615,16.357 67.664,16.187C69.857,16.008 72.063,16.323 74.121,17.11C76.179,17.897 78.037,19.137 79.562,20.738C82.862,23.938 84.281,28.306 83.933,32.675C83.772,34.736 83.188,36.741 82.217,38.562C81.246,40.383 79.911,41.98 78.295,43.252ZM5.87,66.241L33.568,38.292L46.957,75.087C47.196,75.741 47.244,76.451 47.096,77.133C46.948,77.814 46.609,78.438 46.12,78.932C45.632,79.425 45.013,79.767 44.338,79.916C43.663,80.066 42.96,80.018 42.311,79.776L5.87,66.241ZM2.107,80.368C1.059,79.305 0.36,77.941 0.106,76.463C-0.147,74.985 0.056,73.464 0.688,72.106L39.814,86.643C41.261,87.169 42.694,87.381 44.07,87.322L31.657,99.858C30.985,100.537 30.187,101.076 29.308,101.443C28.43,101.811 27.488,102 26.537,102C25.586,102 24.644,101.811 23.765,101.443C22.887,101.076 22.089,100.537 21.416,99.858L2.114,80.361L2.107,80.368ZM71.246,59.878L54.426,76.862C54.484,75.399 54.253,73.939 53.746,72.567L39.199,32.609L41.717,30.067L71.246,59.878Z" clip-rule="evenodd" fill-rule="evenodd" fill="#FFFFFF" stroke="#0F644F" stroke-width="3" stroke-miterlimit="3.999327"/>
</svg>
