<svg width="36" height="22" viewBox="0 0 36 22" fill="none" xmlns="http://www.w3.org/2000/svg" xmlns:xlink="http://www.w3.org/1999/xlink">
<path d="M34.946,0.997C34.303,0.358 33.434,0 32.529,0C31.623,0 30.754,0.358 30.111,0.997L17.801,13.136L5.662,0.997C5.019,0.358 4.15,0 3.244,0C2.338,0 1.469,0.358 0.827,0.997C0.505,1.316 0.25,1.695 0.076,2.113C-0.098,2.531 -0.188,2.979 -0.188,3.432C-0.188,3.884 -0.098,4.333 0.076,4.751C0.25,5.168 0.505,5.548 0.827,5.866L15.366,20.406C15.685,20.727 16.064,20.982 16.482,21.156C16.9,21.33 17.348,21.42 17.801,21.42C18.253,21.42 18.702,21.33 19.119,21.156C19.537,20.982 19.916,20.727 20.235,20.406L34.946,5.866C35.267,5.548 35.522,5.168 35.697,4.751C35.871,4.333 35.96,3.884 35.96,3.432C35.96,2.979 35.871,2.531 35.697,2.113C35.522,1.695 35.267,1.316 34.946,0.997Z" fill="#0F644F"/>
</svg>
