<svg width="100" height="90" viewBox="0 0 100 90" fill="none" xmlns="http://www.w3.org/2000/svg" xmlns:xlink="http://www.w3.org/1999/xlink">
<path d="M10,66.5L10,24L5,24L5,19L10,19L10,14L5,14L5,9L10,9L10,4L5,4L5,-1L35,-1C37.5,-0.85 39.75,0.2 41.7,2.15C43.65,4.1 44.75,6.5 45,9L95,9L95,14L45,14C44.75,16.65 43.65,19 41.7,21.15C39.75,23.3 37.5,24.25 35,24L25,24L25,59.25C25.25,59.25 25.65,59.2 26.2,59C26.75,58.8 27.2,59 27.5,59C30.3,59 33.5,59.7 37.1,61.1C39.15,56.5 42.65,52.4 47.65,49C52.65,45.6 57.65,44 62.65,44C70.3,44 76.8,46.65 82.1,51.95C87.4,57.25 90,63.75 90,71.5L90,72.85C90,73.5 89.85,73.85 89.85,74L5.7,74C6.35,71.5 7.75,69 10,66.5ZM20,60.15L20,24L15,24L15,62.5C17.5,61.25 19.05,60.5 20,60.15ZM35,19L35,14L25,14L25,19L35,19ZM35,4L25,4L25,9L35,9L35,4ZM15,4L15,9L20,9L20,4L15,4ZM15,14L15,19L20,19L20,14L15,14ZM0,79L100,79L90,89L10,89L0,79Z" fill="#FFFFFF" stroke="#0F644F" stroke-width="3" stroke-miterlimit="3.999327"/>
</svg>
