<svg width="42" height="34" viewBox="0 0 42 34" fill="none" xmlns="http://www.w3.org/2000/svg" xmlns:xlink="http://www.w3.org/1999/xlink">
<path d="M35.7,-0.88L6.3,-0.88C4.629,-0.88 3.027,-0.216 1.845,0.965C0.664,2.147 0,3.749 0,5.42L0,26.42C0,28.091 0.664,29.693 1.845,30.875C3.027,32.056 4.629,32.72 6.3,32.72L35.7,32.72C37.371,32.72 38.973,32.056 40.155,30.875C41.336,29.693 42,28.091 42,26.42L42,5.42C42,3.749 41.336,2.147 40.155,0.965C38.973,-0.216 37.371,-0.88 35.7,-0.88ZM6.3,3.32L35.7,3.32C36.257,3.32 36.791,3.541 37.185,3.935C37.579,4.329 37.8,4.863 37.8,5.42L21,15.668L4.2,5.42C4.2,4.863 4.421,4.329 4.815,3.935C5.209,3.541 5.743,3.32 6.3,3.32ZM37.8,26.42C37.8,26.977 37.579,27.511 37.185,27.905C36.791,28.299 36.257,28.52 35.7,28.52L6.3,28.52C5.743,28.52 5.209,28.299 4.815,27.905C4.421,27.511 4.2,26.977 4.2,26.42L4.2,10.208L19.908,19.805C20.227,19.989 20.589,20.086 20.958,20.086C21.327,20.086 21.689,19.989 22.008,19.805L37.8,10.208L37.8,26.42Z" fill="#949494" stroke="#949494" stroke-opacity="0.5" stroke-width="2.085" stroke-miterlimit="3.999327"/>
</svg>
