<svg width="40" height="50" viewBox="0 0 40 50" fill="none" xmlns="http://www.w3.org/2000/svg" xmlns:xlink="http://www.w3.org/1999/xlink">
<path d="M19.3,26.537C18.566,26.529 17.846,26.746 17.238,27.158C16.631,27.571 16.164,28.16 15.901,28.846C15.638,29.532 15.592,30.282 15.768,30.995C15.945,31.708 16.335,32.35 16.887,32.834L16.887,36.188C16.887,36.827 17.142,37.441 17.594,37.893C18.047,38.346 18.66,38.6 19.3,38.6C19.94,38.6 20.553,38.346 21.006,37.893C21.458,37.441 21.713,36.827 21.713,36.188L21.713,32.834C22.265,32.35 22.655,31.708 22.832,30.995C23.008,30.282 22.962,29.532 22.699,28.846C22.436,28.16 21.969,27.571 21.362,27.158C20.754,26.746 20.034,26.529 19.3,26.537ZM31.363,16.887L31.363,12.063C31.363,8.863 30.092,5.795 27.829,3.533C25.567,1.271 22.499,0 19.3,0C16.101,0 13.033,1.271 10.771,3.533C8.508,5.795 7.238,8.863 7.238,12.063L7.238,16.887C5.318,16.887 3.477,17.65 2.12,19.007C0.763,20.365 0,22.205 0,24.125L0,41.012C0,42.932 0.763,44.773 2.12,46.13C3.477,47.487 5.318,48.25 7.238,48.25L31.363,48.25C33.282,48.25 35.123,47.487 36.48,46.13C37.837,44.773 38.6,42.932 38.6,41.012L38.6,24.125C38.6,22.205 37.837,20.365 36.48,19.007C35.123,17.65 33.282,16.887 31.363,16.887ZM12.063,12.063C12.063,10.143 12.825,8.302 14.182,6.945C15.54,5.588 17.381,4.825 19.3,4.825C21.22,4.825 23.06,5.588 24.418,6.945C25.775,8.302 26.538,10.143 26.538,12.063L26.538,16.887L12.063,16.887L12.063,12.063ZM33.775,41.012C33.775,41.652 33.521,42.266 33.068,42.718C32.616,43.171 32.002,43.425 31.363,43.425L7.238,43.425C6.598,43.425 5.984,43.171 5.532,42.718C5.079,42.266 4.825,41.652 4.825,41.012L4.825,24.125C4.825,23.485 5.079,22.872 5.532,22.419C5.984,21.967 6.598,21.712 7.238,21.712L31.363,21.712C32.002,21.712 32.616,21.967 33.068,22.419C33.521,22.872 33.775,23.485 33.775,24.125L33.775,41.012Z" fill="#949494"/>
</svg>
