<svg width="84" height="82" viewBox="0 0 84 82" fill="none" xmlns="http://www.w3.org/2000/svg" xmlns:xlink="http://www.w3.org/1999/xlink">
<path d="M28.717,36.441L29.353,36.469C30.883,36.603 32.315,37.221 33.403,38.217C34.491,39.213 35.167,40.524 35.316,41.927L35.338,42.514L35.307,43.101C35.158,44.503 34.483,45.814 33.396,46.81C32.309,47.806 30.878,48.424 29.349,48.559L28.717,48.587L13.259,48.587L13.259,56.685L28.717,56.685C36.226,56.685 42.484,51.778 43.884,45.271L44.016,44.543L70.675,44.538C73.816,44.538 76.806,43.935 79.509,42.854L79.509,60.734C79.509,63.247 78.66,65.697 77.078,67.749C75.496,69.8 73.259,71.351 70.675,72.189L70.675,76.93C70.675,78.004 70.21,79.034 69.382,79.793C68.554,80.552 67.43,80.979 66.259,80.979L13.259,80.979C12.087,80.979 10.964,80.552 10.136,79.793C9.307,79.034 8.842,78.004 8.842,76.93L8.842,72.193C6.258,71.355 4.02,69.803 2.438,67.751C0.856,65.699 0.007,63.247 0.009,60.734L0.009,44.538C0.009,42.391 0.939,40.331 2.596,38.812C4.253,37.294 6.499,36.441 8.842,36.441L28.717,36.441ZM83.925,22.269L83.925,24.294L83.903,25.006C83.713,27.977 82.34,30.78 80.045,32.883C77.75,34.987 74.693,36.246 71.453,36.42L70.675,36.441L42.687,36.441C41.501,34.147 39.664,32.188 37.369,30.767C35.073,29.347 32.404,28.518 29.64,28.367L28.713,28.343L8.838,28.343C5.735,28.342 2.687,29.091 0,30.513L0.009,16.196C0.009,11.9 1.87,7.781 5.183,4.744C8.496,1.706 12.99,0 17.676,0L59.634,0C66.076,0 72.255,2.346 76.811,6.523C81.366,10.699 83.925,16.363 83.925,22.269Z" fill="#FFFFFF" stroke="#876A6F" stroke-width="3" stroke-miterlimit="3.999327"/>
</svg>
