<svg width="38" height="22" viewBox="0 0 38 22" fill="none" xmlns="http://www.w3.org/2000/svg" xmlns:xlink="http://www.w3.org/1999/xlink">
<path d="M35.134,1.532C34.491,0.947 33.622,0.618 32.716,0.618C31.81,0.618 30.941,0.947 30.299,1.532L17.988,12.66L5.849,1.532C5.207,0.947 4.338,0.618 3.432,0.618C2.526,0.618 1.657,0.947 1.014,1.532C0.693,1.824 0.438,2.172 0.264,2.555C0.09,2.938 0,3.349 0,3.764C0,4.179 0.09,4.59 0.264,4.973C0.438,5.356 0.693,5.704 1.014,5.996L15.554,19.325C15.872,19.619 16.252,19.853 16.669,20.013C17.087,20.172 17.536,20.255 17.988,20.255C18.441,20.255 18.889,20.172 19.307,20.013C19.725,19.853 20.104,19.619 20.423,19.325L35.134,5.996C35.455,5.704 35.71,5.356 35.884,4.973C36.058,4.59 36.148,4.179 36.148,3.764C36.148,3.349 36.058,2.938 35.884,2.555C35.71,2.172 35.455,1.824 35.134,1.532Z" fill="#961C48"/>
</svg>
