<svg width="104" height="106" viewBox="0 0 104 106" fill="none" xmlns="http://www.w3.org/2000/svg" xmlns:xlink="http://www.w3.org/1999/xlink">
<path d="M65.298,0.818C64.785,0.815 64.272,0.828 63.759,0.855C56.493,1.253 50.511,5.099 45.271,10.514C45.863,10.469 46.447,10.45 47.023,10.454C49.733,10.473 52.293,10.946 54.988,11.012C48.746,12.549 43.402,15.657 38.246,19.091C33.506,25.688 29.268,32.986 24.961,39.01C20.044,45.889 12.96,53.426 7.613,61.186C7.776,64.322 8.944,67.457 9.951,70.592C7.696,69.593 5.16,68.811 4.061,66.913C0.328,73.783 -1.34,80.743 1.687,87.503C8.626,102.998 34.964,108.204 50.622,101.639C51.829,101.132 52.811,100.387 53.634,99.469C50.189,99.421 47.851,97.345 45.197,95.846C48.05,95.613 52.49,96.846 55.757,96.103C57.777,91.736 58.577,86.012 61.202,82.065C62.757,79.726 64.636,77.504 66.72,75.361C63.359,75.937 59.967,75.926 56.002,75.409C66.281,71.632 70.606,69.796 78.552,64.959C90.995,54.929 103.797,45.292 102.202,31.169C100.427,15.46 81.306,0.902 65.298,0.818ZM66.779,7.848C67.392,7.86 67.785,8.019 67.888,8.295C68.003,8.606 67.744,9.042 67.166,9.508C66.588,9.973 65.74,10.43 64.807,10.777C63.874,11.125 62.934,11.334 62.192,11.36C61.451,11.386 60.969,11.226 60.853,10.915C60.738,10.604 60.997,10.168 61.575,9.702C62.152,9.237 63.001,8.78 63.934,8.433C64.404,8.257 64.882,8.115 65.338,8.015C65.794,7.915 66.22,7.858 66.589,7.849C66.655,7.847 66.718,7.847 66.779,7.848ZM74.977,11.714C87.007,16.632 96.419,34.228 91.397,44.553C91.58,36.265 81.03,19.171 74.977,11.714ZM58.134,18.787C58.745,18.796 59.342,18.848 59.919,18.945C50.553,24.247 41.503,29.937 34.73,38.432C36.507,28.175 48.966,18.654 58.134,18.787ZM39.06,48.162C39.615,48.158 40.275,48.232 40.993,48.377C41.712,48.522 42.471,48.735 43.218,49.002C44.578,49.487 45.812,50.118 46.65,50.757C47.487,51.395 47.859,51.988 47.684,52.406C47.508,52.824 46.799,53.031 45.713,52.983C44.628,52.936 43.253,52.636 41.893,52.151C41.22,51.91 40.57,51.632 39.981,51.331C39.392,51.029 38.876,50.712 38.461,50.396C38.046,50.079 37.742,49.771 37.564,49.488C37.387,49.205 37.341,48.953 37.428,48.746C37.584,48.375 38.162,48.168 39.06,48.162L39.06,48.162ZM56.148,78.535C56.761,78.549 57.154,78.708 57.256,78.984C57.313,79.138 57.279,79.325 57.155,79.532C57.03,79.74 56.819,79.966 56.532,80.196C56.246,80.426 55.89,80.656 55.485,80.873C55.08,81.09 54.633,81.29 54.171,81.461C53.709,81.632 53.24,81.772 52.791,81.871C52.342,81.97 51.922,82.027 51.555,82.039C51.188,82.052 50.881,82.018 50.651,81.941C50.422,81.865 50.274,81.746 50.217,81.592C50.102,81.28 50.363,80.845 50.941,80.38C51.52,79.916 52.369,79.461 53.302,79.115C53.773,78.941 54.251,78.799 54.707,78.7C55.163,78.6 55.589,78.544 55.959,78.535C56.024,78.534 56.087,78.534 56.148,78.535ZM10.365,80.144C12.068,85.673 19.058,89.875 25.183,95.404C17.976,94.083 8.226,92.164 10.365,80.144Z" fill="#FFFFFF" stroke="#0F644F" stroke-width="3" stroke-miterlimit="3.999327"/>
</svg>
