<svg width="38" height="22" viewBox="0 0 38 22" fill="none" xmlns="http://www.w3.org/2000/svg" xmlns:xlink="http://www.w3.org/1999/xlink">
<path d="M35.134,1.723C34.491,1.137 33.622,0.809 32.716,0.809C31.81,0.809 30.941,1.137 30.299,1.723L17.988,12.851L5.849,1.723C5.207,1.137 4.338,0.809 3.432,0.809C2.526,0.809 1.657,1.137 1.014,1.723C0.693,2.015 0.438,2.363 0.264,2.746C0.09,3.129 0,3.54 0,3.955C0,4.37 0.09,4.781 0.264,5.164C0.438,5.547 0.693,5.894 1.014,6.187L15.554,19.515C15.872,19.81 16.252,20.044 16.669,20.203C17.087,20.363 17.536,20.445 17.988,20.445C18.441,20.445 18.889,20.363 19.307,20.203C19.725,20.044 20.104,19.81 20.423,19.515L35.134,6.187C35.455,5.894 35.71,5.547 35.884,5.164C36.058,4.781 36.148,4.37 36.148,3.955C36.148,3.54 36.058,3.129 35.884,2.746C35.71,2.363 35.455,2.015 35.134,1.723Z" fill="#961C48"/>
</svg>
