<svg width="88" height="70" viewBox="0 0 88 70" fill="none" xmlns="http://www.w3.org/2000/svg" xmlns:xlink="http://www.w3.org/1999/xlink">
<path d="M73.603,0.029L13.382,0.029C9.959,0.029 6.677,1.388 4.257,3.808C1.837,6.228 0.477,9.511 0.477,12.933L0.477,55.948C0.477,59.371 1.837,62.653 4.257,65.073C6.677,67.493 9.959,68.853 13.382,68.853L73.603,68.853C77.025,68.853 80.308,67.493 82.728,65.073C85.148,62.653 86.507,59.371 86.507,55.948L86.507,12.933C86.507,9.511 85.148,6.228 82.728,3.808C80.308,1.388 77.025,0.029 73.603,0.029ZM13.382,8.632L73.603,8.632C74.744,8.632 75.838,9.085 76.645,9.891C77.451,10.698 77.904,11.792 77.904,12.933L43.492,33.925L9.08,12.933C9.08,11.792 9.534,10.698 10.34,9.891C11.147,9.085 12.241,8.632 13.382,8.632ZM77.904,55.948C77.904,57.089 77.451,58.183 76.645,58.99C75.838,59.797 74.744,60.25 73.603,60.25L13.382,60.25C12.241,60.25 11.147,59.797 10.34,58.99C9.534,58.183 9.08,57.089 9.08,55.948L9.08,22.741L41.256,42.398C41.909,42.776 42.651,42.975 43.406,42.975C44.161,42.975 44.903,42.776 45.557,42.398L77.904,22.741L77.904,55.948Z" fill="#949494" stroke="#949494" stroke-opacity="0.5" stroke-width="2.085" stroke-miterlimit="3.999327"/>
</svg>
