<svg width="80" height="104" viewBox="0 0 80 104" fill="none" xmlns="http://www.w3.org/2000/svg" xmlns:xlink="http://www.w3.org/1999/xlink">
<path d="M54.167,13.975C54.167,17.419 52.674,20.722 50.017,23.158C47.36,25.594 43.757,26.962 40,26.962C36.243,26.962 32.639,25.594 29.983,23.158C27.326,20.722 25.833,17.419 25.833,13.975C25.833,10.53 27.326,7.227 29.983,4.791C32.639,2.356 36.243,0.987 40,0.987C43.757,0.987 47.36,2.356 50.017,4.791C52.674,7.227 54.167,10.53 54.167,13.975ZM59.833,99.69C59.833,100.379 59.535,101.04 59.003,101.527C58.472,102.014 57.751,102.288 57,102.288L8.425,102.288C6.666,102.288 4.955,101.762 3.551,100.791C2.147,99.819 1.127,98.455 0.644,96.905C0.161,95.354 0.243,93.701 0.877,92.197C1.51,90.693 2.661,89.419 4.155,88.568L19.127,80.043C20.355,79.344 21.368,78.369 22.07,77.211C22.773,76.053 23.141,74.75 23.142,73.425L23.142,71.118L29.868,71.118C32.873,71.118 35.756,70.023 37.881,68.074L40,66.134L42.116,68.074C43.169,69.04 44.419,69.805 45.795,70.328C47.171,70.85 48.646,71.119 50.135,71.118L57,71.118L57,73.435C57,74.756 57.367,76.056 58.066,77.211C58.765,78.367 59.773,79.34 60.995,80.041L75.859,88.558C77.352,89.412 78.501,90.689 79.132,92.196C79.763,93.702 79.842,95.356 79.356,96.907C78.871,98.458 77.848,99.822 76.442,100.793C75.036,101.764 73.323,102.288 71.563,102.288L65.018,102.288C65.33,101.475 65.5,100.599 65.5,99.69L65.5,99.041C65.5,97.153 64.752,95.33 63.396,93.91C62.04,92.49 60.168,91.569 58.128,91.319L20.685,86.726C19.946,86.646 19.203,86.835 18.615,87.253C18.027,87.671 17.642,88.284 17.543,88.96C17.444,89.636 17.639,90.321 18.086,90.866C18.533,91.411 19.196,91.773 19.931,91.874L57.377,96.467C58.057,96.55 58.681,96.857 59.132,97.331C59.584,97.804 59.833,98.412 59.833,99.041L59.833,99.69ZM46.126,64.401L42.833,61.383L42.833,51.663C43.256,51.887 43.647,52.162 44.006,52.489L49.33,57.373C49.862,57.859 50.582,58.132 51.333,58.131L59.833,58.131C60.316,58.131 60.791,58.018 61.212,57.802C61.634,57.586 61.988,57.275 62.242,56.899C62.496,56.522 62.64,56.093 62.662,55.651C62.684,55.208 62.582,54.769 62.366,54.373L59.533,49.178C59.374,48.862 59.147,48.579 58.866,48.345C58.585,48.111 58.256,47.931 57.898,47.816C57.54,47.701 57.16,47.653 56.782,47.675C56.403,47.697 56.033,47.788 55.694,47.944C55.354,48.099 55.052,48.316 54.806,48.58C54.56,48.845 54.374,49.152 54.259,49.484C54.145,49.815 54.104,50.165 54.14,50.511C54.176,50.857 54.287,51.194 54.467,51.5L55.249,52.936L52.506,52.936L48.013,48.817C45.887,46.869 43.005,45.775 40,45.775C36.995,45.775 34.113,46.869 31.987,48.817L27.494,52.936L24.751,52.936L25.533,51.5C25.713,51.194 25.824,50.857 25.86,50.511C25.895,50.165 25.855,49.815 25.74,49.484C25.626,49.152 25.44,48.845 25.194,48.58C24.947,48.316 24.646,48.099 24.306,47.944C23.967,47.788 23.597,47.697 23.218,47.675C22.839,47.653 22.46,47.701 22.102,47.816C21.744,47.931 21.414,48.111 21.134,48.345C20.853,48.579 20.626,48.862 20.467,49.178L17.634,54.373C17.418,54.769 17.316,55.208 17.338,55.651C17.359,56.093 17.504,56.522 17.758,56.899C18.011,57.275 18.366,57.586 18.788,57.802C19.209,58.018 19.684,58.131 20.167,58.131L28.667,58.131C29.418,58.131 30.138,57.857 30.67,57.37L35.994,52.489C36.354,52.162 36.745,51.887 37.167,51.663L37.167,61.383L33.874,64.401C32.812,65.376 31.371,65.923 29.868,65.923L12.76,65.923C11.839,65.923 10.931,65.717 10.116,65.323C9.301,64.929 8.603,64.359 8.083,63.661C7.563,62.964 7.236,62.161 7.131,61.322C7.025,60.483 7.145,59.633 7.479,58.845L15.99,38.78C16.818,36.829 18.269,35.153 20.154,33.971C22.039,32.789 24.269,32.157 26.553,32.157L53.447,32.157C55.73,32.157 57.961,32.789 59.846,33.971C61.73,35.153 63.182,36.829 64.01,38.78L72.524,58.845C72.858,59.633 72.977,60.484 72.872,61.323C72.766,62.163 72.439,62.966 71.918,63.664C71.397,64.361 70.698,64.931 69.883,65.325C69.067,65.719 68.159,65.924 67.237,65.923L50.129,65.923C48.626,65.923 47.185,65.376 46.123,64.401Z" fill="#FFFFFF" stroke="#876A6F" stroke-width="3" stroke-miterlimit="3.999327"/>
</svg>
