<svg width="80" height="100" viewBox="0 0 80 100" fill="none" xmlns="http://www.w3.org/2000/svg" xmlns:xlink="http://www.w3.org/1999/xlink">
<path d="M40.204,54.183C38.699,54.165 37.225,54.609 35.981,55.454C34.736,56.299 33.78,57.506 33.242,58.911C32.704,60.316 32.609,61.852 32.97,63.313C33.331,64.773 34.131,66.088 35.262,67.08L35.262,73.949C35.262,75.26 35.783,76.517 36.709,77.443C37.636,78.37 38.893,78.891 40.204,78.891C41.514,78.891 42.771,78.37 43.698,77.443C44.625,76.517 45.145,75.26 45.145,73.949L45.145,67.08C46.276,66.088 47.076,64.773 47.437,63.313C47.798,61.852 47.704,60.316 47.165,58.911C46.627,57.506 45.671,56.299 44.426,55.454C43.182,54.609 41.708,54.165 40.204,54.183ZM64.912,34.416L64.912,24.533C64.912,17.98 62.308,11.695 57.675,7.062C53.041,2.428 46.757,-0.175 40.204,-0.175C33.651,-0.175 27.366,2.428 22.732,7.062C18.099,11.695 15.496,17.98 15.496,24.533L15.496,34.416C11.564,34.416 7.793,35.978 5.013,38.758C2.233,41.538 0.671,45.309 0.671,49.241L0.671,83.832C0.671,87.764 2.233,91.535 5.013,94.315C7.793,97.095 11.564,98.657 15.496,98.657L64.912,98.657C68.843,98.657 72.614,97.095 75.394,94.315C78.175,91.535 79.736,87.764 79.736,83.832L79.736,49.241C79.736,45.309 78.175,41.538 75.394,38.758C72.614,35.978 68.843,34.416 64.912,34.416ZM25.379,24.533C25.379,20.601 26.941,16.83 29.721,14.05C32.501,11.27 36.272,9.708 40.204,9.708C44.135,9.708 47.906,11.27 50.686,14.05C53.466,16.83 55.028,20.601 55.028,24.533L55.028,34.416L25.379,34.416L25.379,24.533ZM69.853,83.832C69.853,85.143 69.333,86.4 68.406,87.327C67.479,88.253 66.222,88.774 64.912,88.774L15.496,88.774C14.185,88.774 12.928,88.253 12.001,87.327C11.075,86.4 10.554,85.143 10.554,83.832L10.554,49.241C10.554,47.93 11.075,46.673 12.001,45.747C12.928,44.82 14.185,44.299 15.496,44.299L64.912,44.299C66.222,44.299 67.479,44.82 68.406,45.747C69.333,46.673 69.853,47.93 69.853,49.241L69.853,83.832Z" fill="#949494"/>
</svg>
