<svg width="110" height="110" viewBox="0 0 110 110" fill="none" xmlns="http://www.w3.org/2000/svg" xmlns:xlink="http://www.w3.org/1999/xlink">
<path d="M54.49,0.003C49.955,0.048 45.352,0.659 40.769,1.887C11.435,9.747 -5.972,39.899 1.887,69.232C8.002,92.05 27.604,107.648 49.816,109.754C49.127,100.064 49.58,90.293 50.728,80.416L55.054,80.918C53.907,90.79 53.477,100.468 54.199,109.995C59.156,110.064 64.206,109.46 69.232,108.113C98.565,100.253 115.973,70.102 108.113,40.769C101.481,16.018 78.98,-0.242 54.49,0.003ZM58.283,4.766C61.625,11.716 63.13,18.108 62.948,23.051L56.308,30.881L50.691,21.769C51.375,16.978 53.963,11.094 58.283,4.766ZM41.765,19.761C43.269,20.68 44.735,21.66 46.159,22.698L46.151,22.702L54.001,35.437L53.299,44.506L43.413,34.035C42.355,30.029 41.757,25.198 41.765,19.761ZM72.735,22.102C71.96,27.251 70.719,31.768 69.168,35.48L57.671,44.462L58.391,35.159L67.245,24.718C68.943,23.804 70.773,22.928 72.735,22.102ZM38.576,37.968C39.973,38.479 41.352,39.035 42.712,39.637L52.846,50.37L52.106,59.927L43.439,55.049C40.881,51.356 39.041,45.63 38.576,37.968ZM74.17,40.64C72.63,47.614 70.132,52.754 67.226,56.063L56.454,60.186L57.216,50.344L67.575,42.251C69.61,41.64 71.811,41.099 74.17,40.64ZM37.084,58.433C38.686,58.59 40.216,58.8 41.676,59.053L51.735,64.715L50.829,76.422C45.914,75.125 40.649,69.204 37.084,58.433ZM69.532,60.754C70.428,60.748 71.346,60.763 72.285,60.797C66.948,71.742 60.416,76.888 55.165,76.851L56.082,64.991L66.969,60.823C67.823,60.781 68.678,60.758 69.532,60.754Z" fill="#FFFFFF" stroke="#0F644F" stroke-width="3" stroke-miterlimit="3.999327"/>
</svg>
