<svg width="36" height="22" viewBox="0 0 36 22" fill="none" xmlns="http://www.w3.org/2000/svg" xmlns:xlink="http://www.w3.org/1999/xlink">
<path d="M34.947,0.997C34.304,0.358 33.435,0 32.529,0C31.623,0 30.754,0.358 30.112,0.997L17.801,13.136L5.662,0.997C5.02,0.358 4.151,0 3.245,0C2.339,0 1.47,0.358 0.827,0.997C0.506,1.316 0.251,1.695 0.077,2.113C-0.097,2.531 -0.187,2.979 -0.187,3.432C-0.187,3.884 -0.097,4.333 0.077,4.751C0.251,5.168 0.506,5.548 0.827,5.866L15.367,20.406C15.685,20.727 16.065,20.982 16.482,21.156C16.9,21.33 17.349,21.42 17.801,21.42C18.254,21.42 18.702,21.33 19.12,21.156C19.538,20.982 19.917,20.727 20.236,20.406L34.947,5.866C35.268,5.548 35.523,5.168 35.697,4.751C35.871,4.333 35.961,3.884 35.961,3.432C35.961,2.979 35.871,2.531 35.697,2.113C35.523,1.695 35.268,1.316 34.947,0.997Z" fill="#0F644F"/>
</svg>
