<svg width="38" height="22" viewBox="0 0 38 22" fill="none" xmlns="http://www.w3.org/2000/svg" xmlns:xlink="http://www.w3.org/1999/xlink">
<path d="M35.134,0.997C34.491,0.358 33.622,0 32.716,0C31.81,0 30.941,0.358 30.299,0.997L17.988,13.136L5.849,0.997C5.207,0.358 4.338,0 3.432,0C2.526,0 1.657,0.358 1.014,0.997C0.693,1.316 0.438,1.695 0.264,2.113C0.09,2.531 0,2.979 0,3.432C0,3.884 0.09,4.333 0.264,4.751C0.438,5.168 0.693,5.548 1.014,5.866L15.554,20.406C15.872,20.727 16.252,20.982 16.669,21.156C17.087,21.33 17.536,21.42 17.988,21.42C18.441,21.42 18.889,21.33 19.307,21.156C19.725,20.982 20.104,20.727 20.423,20.406L35.134,5.866C35.455,5.548 35.71,5.168 35.884,4.751C36.058,4.333 36.148,3.884 36.148,3.432C36.148,2.979 36.058,2.531 35.884,2.113C35.71,1.695 35.455,1.316 35.134,0.997Z" fill="#0F644F"/>
</svg>
