<svg width="80" height="112" viewBox="0 0 80 112" fill="none" xmlns="http://www.w3.org/2000/svg" xmlns:xlink="http://www.w3.org/1999/xlink">
<path d="M54.167,14.333C54.167,18.091 52.674,21.694 50.017,24.351C47.36,27.007 43.757,28.5 40,28.5C36.243,28.5 32.639,27.007 29.983,24.351C27.326,21.694 25.833,18.091 25.833,14.333C25.833,10.576 27.326,6.973 29.983,4.316C32.639,1.659 36.243,0.167 40,0.167C43.757,0.167 47.36,1.659 50.017,4.316C52.674,6.973 54.167,10.576 54.167,14.333ZM59.833,107.833C59.833,108.585 59.535,109.305 59.003,109.837C58.472,110.368 57.751,110.667 57,110.667L8.425,110.667C6.666,110.667 4.955,110.093 3.551,109.034C2.147,107.974 1.127,106.486 0.644,104.795C0.161,103.103 0.243,101.301 0.877,99.66C1.51,98.019 2.661,96.629 4.155,95.701L19.127,86.402C20.355,85.639 21.368,84.576 22.07,83.313C22.773,82.05 23.141,80.628 23.142,79.183L23.142,76.667L29.868,76.667C32.873,76.666 35.756,75.471 37.881,73.346L40,71.229L42.116,73.346C43.169,74.399 44.419,75.234 45.795,75.804C47.171,76.374 48.646,76.667 50.135,76.667L57,76.667L57,79.194C57,80.635 57.367,82.052 58.066,83.313C58.765,84.573 59.773,85.635 60.995,86.399L75.859,95.69C77.352,96.622 78.501,98.015 79.132,99.658C79.763,101.301 79.842,103.105 79.356,104.797C78.871,106.489 77.848,107.977 76.442,109.036C75.036,110.095 73.323,110.667 71.563,110.667L65.018,110.667C65.33,109.78 65.5,108.825 65.5,107.833L65.5,107.125C65.5,105.066 64.752,103.077 63.396,101.528C62.04,99.979 60.168,98.975 58.128,98.701L20.685,93.692C19.946,93.604 19.203,93.811 18.615,94.267C18.027,94.723 17.642,95.391 17.543,96.129C17.444,96.866 17.639,97.613 18.086,98.208C18.533,98.802 19.196,99.198 19.931,99.308L57.377,104.317C58.057,104.408 58.681,104.743 59.132,105.26C59.584,105.776 59.833,106.439 59.833,107.125L59.833,107.833ZM46.126,69.34L42.833,66.047L42.833,55.445C43.256,55.689 43.647,55.989 44.006,56.346L49.33,61.673C49.862,62.203 50.582,62.501 51.333,62.5L59.833,62.5C60.316,62.5 60.791,62.376 61.212,62.141C61.634,61.906 61.988,61.567 62.242,61.156C62.496,60.745 62.64,60.276 62.662,59.794C62.684,59.312 62.582,58.832 62.366,58.4L59.533,52.733C59.374,52.389 59.147,52.08 58.866,51.825C58.585,51.57 58.256,51.373 57.898,51.248C57.54,51.122 57.16,51.07 56.782,51.094C56.403,51.118 56.033,51.218 55.694,51.387C55.354,51.557 55.052,51.793 54.806,52.082C54.56,52.37 54.374,52.705 54.259,53.067C54.145,53.429 54.104,53.81 54.14,54.188C54.176,54.566 54.287,54.932 54.467,55.266L55.249,56.833L52.506,56.833L48.013,52.34C45.887,50.215 43.005,49.021 40,49.021C36.995,49.021 34.113,50.215 31.987,52.34L27.494,56.833L24.751,56.833L25.533,55.266C25.713,54.932 25.824,54.566 25.86,54.188C25.895,53.81 25.855,53.429 25.74,53.067C25.626,52.705 25.44,52.37 25.194,52.082C24.947,51.793 24.646,51.557 24.306,51.387C23.967,51.218 23.597,51.118 23.218,51.094C22.839,51.07 22.46,51.122 22.102,51.248C21.744,51.373 21.414,51.57 21.134,51.825C20.853,52.08 20.626,52.389 20.467,52.733L17.634,58.4C17.418,58.832 17.316,59.312 17.338,59.794C17.359,60.276 17.504,60.745 17.758,61.156C18.011,61.567 18.366,61.906 18.788,62.141C19.209,62.376 19.684,62.5 20.167,62.5L28.667,62.5C29.418,62.5 30.138,62.201 30.67,61.67L35.994,56.346C36.354,55.989 36.745,55.689 37.167,55.445L37.167,66.047L33.874,69.34C32.812,70.402 31.371,71 29.868,71L12.76,71C11.839,71 10.931,70.775 10.116,70.345C9.301,69.915 8.603,69.293 8.083,68.533C7.563,67.772 7.236,66.896 7.131,65.981C7.025,65.065 7.145,64.138 7.479,63.279L15.99,41.392C16.818,39.263 18.269,37.435 20.154,36.146C22.039,34.856 24.269,34.167 26.553,34.167L53.447,34.167C55.73,34.167 57.961,34.856 59.846,36.146C61.73,37.435 63.182,39.263 64.01,41.392L72.524,63.279C72.858,64.138 72.977,65.066 72.872,65.982C72.766,66.898 72.439,67.774 71.918,68.535C71.397,69.296 70.698,69.918 69.883,70.347C69.067,70.777 68.159,71.001 67.237,71L50.129,71C48.626,71 47.185,70.402 46.123,69.34Z" fill="#FFFFFF" stroke="#876A6F" stroke-width="3" stroke-miterlimit="3.999327"/>
</svg>
