<svg width="90" height="90" viewBox="0 0 90 90" fill="none" xmlns="http://www.w3.org/2000/svg" xmlns:xlink="http://www.w3.org/1999/xlink">
<path d="M69.637,20.481L56.864,7.709C56.446,7.287 55.949,6.953 55.401,6.724C54.853,6.496 54.265,6.379 53.671,6.379C53.078,6.379 52.49,6.496 51.942,6.724C51.394,6.953 50.896,7.287 50.478,7.709C49.641,8.551 49.17,9.691 49.17,10.879C49.17,12.068 49.641,13.207 50.478,14.05L60.013,23.584L23.584,60.013L14.05,50.478C13.207,49.641 12.068,49.17 10.879,49.17C9.691,49.17 8.551,49.641 7.709,50.478C7.287,50.896 6.953,51.394 6.724,51.942C6.496,52.49 6.379,53.078 6.379,53.671C6.379,54.265 6.496,54.853 6.724,55.401C6.953,55.949 7.287,56.446 7.709,56.864L20.346,69.502L32.984,82.139C33.4,82.564 33.897,82.902 34.445,83.134C34.993,83.366 35.582,83.486 36.177,83.489C37.07,83.494 37.945,83.233 38.689,82.739C39.433,82.245 40.014,81.541 40.356,80.716C40.699,79.891 40.788,78.983 40.612,78.107C40.437,77.231 40.004,76.427 39.37,75.798L29.971,66.399L66.399,29.971L75.933,39.505C76.352,39.921 76.85,40.251 77.396,40.475C77.943,40.699 78.529,40.814 79.12,40.812C79.71,40.809 80.295,40.691 80.84,40.463C81.386,40.235 81.88,39.902 82.297,39.482C82.713,39.063 83.043,38.566 83.267,38.019C83.491,37.472 83.606,36.887 83.603,36.296C83.601,35.705 83.483,35.12 83.255,34.575C83.027,34.03 82.694,33.535 82.274,33.119L69.637,20.481ZM7.709,69.547C6.862,68.7 5.713,68.224 4.516,68.224C3.318,68.224 2.169,68.7 1.323,69.547C0.476,70.394 0,71.542 0,72.74C0,73.938 0.476,75.086 1.323,75.933L14.05,88.66C14.47,89.077 14.969,89.407 15.517,89.631C16.064,89.855 16.651,89.968 17.243,89.965C17.835,89.968 18.422,89.855 18.97,89.631C19.518,89.407 20.016,89.077 20.436,88.66C20.858,88.242 21.192,87.745 21.421,87.197C21.649,86.649 21.767,86.061 21.767,85.467C21.767,84.874 21.649,84.286 21.421,83.738C21.192,83.19 20.858,82.692 20.436,82.274L7.709,69.547ZM88.66,14.05L75.933,1.323C75.086,0.476 73.938,0 72.74,0C71.542,0 70.394,0.476 69.547,1.323C68.7,2.169 68.224,3.318 68.224,4.516C68.224,5.713 68.7,6.862 69.547,7.709L82.274,20.436C82.692,20.858 83.19,21.192 83.738,21.421C84.286,21.649 84.874,21.767 85.467,21.767C86.061,21.767 86.649,21.649 87.197,21.421C87.745,21.192 88.242,20.858 88.66,20.436C89.082,20.018 89.417,19.521 89.645,18.973C89.873,18.425 89.991,17.837 89.991,17.243C89.991,16.649 89.873,16.062 89.645,15.514C89.417,14.966 89.082,14.468 88.66,14.05Z" fill="#FFFFFF" stroke="#876A6F" stroke-width="3" stroke-miterlimit="3.999327"/>
</svg>
